<mxfile host="app.diagrams.net" modified="2021-01-26T19:10:20.960Z" agent="5.0 (Windows NT 10.0; Win64; x64) AppleWebKit/537.36 (KHTML, like Gecko) Chrome/88.0.4324.104 Safari/537.36" etag="AZP2QnmFkQEUbxDF7YlN" version="14.2.7" type="github">
  <diagram id="C5RBs43oDa-KdzZeNtuy" name="Page-1">
    <mxGraphModel dx="1665" dy="959" grid="1" gridSize="10" guides="1" tooltips="1" connect="1" arrows="1" fold="1" page="1" pageScale="1" pageWidth="827" pageHeight="1169" math="0" shadow="0">
      <root>
        <mxCell id="WIyWlLk6GJQsqaUBKTNV-0" />
        <mxCell id="WIyWlLk6GJQsqaUBKTNV-1" parent="WIyWlLk6GJQsqaUBKTNV-0" />
        <mxCell id="Gnpq8NItKPoNj1QM45Gr-0" value="SPA" style="rounded=1;whiteSpace=wrap;html=1;" vertex="1" parent="WIyWlLk6GJQsqaUBKTNV-1">
          <mxGeometry x="90" y="300" width="120" height="60" as="geometry" />
        </mxCell>
        <mxCell id="Gnpq8NItKPoNj1QM45Gr-1" value="" style="whiteSpace=wrap;html=1;aspect=fixed;" vertex="1" parent="WIyWlLk6GJQsqaUBKTNV-1">
          <mxGeometry x="300" y="230" width="300" height="300" as="geometry" />
        </mxCell>
        <mxCell id="Gnpq8NItKPoNj1QM45Gr-2" value="SAP Commerce Cloud" style="rounded=0;whiteSpace=wrap;html=1;" vertex="1" parent="WIyWlLk6GJQsqaUBKTNV-1">
          <mxGeometry x="382.5" y="220" width="135" height="20" as="geometry" />
        </mxCell>
        <mxCell id="Gnpq8NItKPoNj1QM45Gr-3" value="OCC&lt;br&gt;Rest Controllers" style="rounded=0;whiteSpace=wrap;html=1;" vertex="1" parent="WIyWlLk6GJQsqaUBKTNV-1">
          <mxGeometry x="320" y="275" width="70" height="110" as="geometry" />
        </mxCell>
        <mxCell id="Gnpq8NItKPoNj1QM45Gr-4" value="" style="shape=cylinder3;whiteSpace=wrap;html=1;boundedLbl=1;backgroundOutline=1;size=15;" vertex="1" parent="WIyWlLk6GJQsqaUBKTNV-1">
          <mxGeometry x="510" y="340" width="60" height="80" as="geometry" />
        </mxCell>
        <mxCell id="Gnpq8NItKPoNj1QM45Gr-7" value="Facade" style="rounded=0;whiteSpace=wrap;html=1;" vertex="1" parent="WIyWlLk6GJQsqaUBKTNV-1">
          <mxGeometry x="414" y="275" width="56" height="105" as="geometry" />
        </mxCell>
        <mxCell id="Gnpq8NItKPoNj1QM45Gr-8" value="Service" style="rounded=0;whiteSpace=wrap;html=1;" vertex="1" parent="WIyWlLk6GJQsqaUBKTNV-1">
          <mxGeometry x="327" y="395" width="56" height="105" as="geometry" />
        </mxCell>
        <mxCell id="Gnpq8NItKPoNj1QM45Gr-9" value="DAO" style="rounded=0;whiteSpace=wrap;html=1;" vertex="1" parent="WIyWlLk6GJQsqaUBKTNV-1">
          <mxGeometry x="424" y="395" width="56" height="105" as="geometry" />
        </mxCell>
        <mxCell id="Gnpq8NItKPoNj1QM45Gr-10" value="Mobile (Not being utilized in current implementation for cybersource device fingerprinting)" style="rounded=1;whiteSpace=wrap;html=1;" vertex="1" parent="WIyWlLk6GJQsqaUBKTNV-1">
          <mxGeometry x="60" y="385" width="170" height="95" as="geometry" />
        </mxCell>
      </root>
    </mxGraphModel>
  </diagram>
</mxfile>
